<?xml version="1.0" standalone="no"?>
<!DOCTYPE svg PUBLIC "-//W3C//DTD SVG 20010904//EN"
 "http://www.w3.org/TR/2001/REC-SVG-20010904/DTD/svg10.dtd">
<svg version="1.0" xmlns="http://www.w3.org/2000/svg"
 width="260.000000pt" height="260.000000pt" viewBox="0 0 260.000000 260.000000"
 preserveAspectRatio="xMidYMid meet">
<metadata>
Created by potrace 1.14, written by Peter Selinger 2001-2017
</metadata>
<g transform="translate(0.000000,260.000000) scale(0.100000,-0.100000)"
fill="#000000" stroke="none">
<path d="M0 1300 l0 -1300 1300 0 1300 0 0 1300 0 1300 -1300 0 -1300 0 0
-1300z m1014 57 c121 -331 230 -630 243 -665 l23 -63 -97 3 -96 3 -65 183 -65
182 -286 0 -287 0 -64 -185 -65 -185 -92 0 -92 0 29 78 c15 42 124 341 242
664 l213 588 120 0 120 0 219 -603z m1076 593 c82 -13 179 -60 219 -105 16
-19 37 -58 46 -87 39 -133 0 -248 -113 -329 -31 -21 -50 -39 -44 -39 6 0 36
-9 66 -21 69 -25 149 -96 184 -163 25 -47 27 -60 27 -166 0 -108 -2 -119 -30
-173 -35 -70 -119 -151 -192 -184 -98 -45 -166 -53 -480 -53 l-293 0 0 665 0
665 273 0 c149 0 301 -5 337 -10z"/>
<path d="M556 1482 c-60 -169 -111 -313 -113 -319 -4 -10 45 -13 227 -13 181
0 231 3 228 13 -176 495 -224 627 -228 627 -3 0 -54 -139 -114 -308z"/>
<path d="M1660 1620 l0 -192 183 4 c205 5 245 15 296 74 35 39 45 83 39 159
-5 64 -24 89 -88 118 -39 18 -71 21 -237 25 l-193 4 0 -192z"/>
<path d="M1660 1029 l0 -251 208 5 c250 6 294 16 363 86 39 38 49 56 59 104
15 77 1 166 -35 213 -57 74 -142 94 -412 94 l-183 0 0 -251z"/>
</g>
</svg>
